<mxfile host="app.diagrams.net" agent="Mozilla/5.0 (Windows NT 10.0; Win64; x64; rv:139.0) Gecko/20100101 Firefox/139.0" version="27.1.6" pages="2">
  <diagram name="Page-1" id="jNo74fJBOZcq1qri44W3">
    <mxGraphModel dx="1094" dy="673" grid="1" gridSize="10" guides="1" tooltips="1" connect="1" arrows="1" fold="1" page="1" pageScale="1" pageWidth="3300" pageHeight="4681" math="0" shadow="0">
      <root>
        <mxCell id="0" />
        <mxCell id="1" parent="0" />
        <mxCell id="5kNmyZpak8MlDcXLCmuv-3" style="edgeStyle=orthogonalEdgeStyle;rounded=0;orthogonalLoop=1;jettySize=auto;html=1;exitX=1;exitY=0.5;exitDx=0;exitDy=0;entryX=0;entryY=0.5;entryDx=0;entryDy=0;" edge="1" parent="1" source="5kNmyZpak8MlDcXLCmuv-1" target="5kNmyZpak8MlDcXLCmuv-2">
          <mxGeometry relative="1" as="geometry" />
        </mxCell>
        <mxCell id="5kNmyZpak8MlDcXLCmuv-1" value="data&#xa;ECG Data and&#xa;Medical Records" style="rectangle;fillColor=#fff2cc;strokeColor=#d6b656;" name="data" vertex="1" parent="1">
          <mxGeometry x="340" y="230" width="100" height="50" as="geometry" />
        </mxCell>
        <mxCell id="5kNmyZpak8MlDcXLCmuv-5" style="edgeStyle=orthogonalEdgeStyle;rounded=0;orthogonalLoop=1;jettySize=auto;html=1;exitX=1;exitY=0.5;exitDx=0;exitDy=0;entryX=0.5;entryY=0;entryDx=0;entryDy=0;" edge="1" parent="1" source="5kNmyZpak8MlDcXLCmuv-2" target="5kNmyZpak8MlDcXLCmuv-4">
          <mxGeometry relative="1" as="geometry" />
        </mxCell>
        <mxCell id="5kNmyZpak8MlDcXLCmuv-2" value="transform" style="rounded=1;whiteSpace=wrap;html=1;arcSize=50;fillColor=#f8cecc;strokeColor=#b85450;" name="transform" vertex="1" parent="1">
          <mxGeometry x="520" y="230" width="100" height="50" as="geometry" />
        </mxCell>
        <mxCell id="5kNmyZpak8MlDcXLCmuv-7" style="edgeStyle=orthogonalEdgeStyle;rounded=0;orthogonalLoop=1;jettySize=auto;html=1;exitX=1;exitY=0.5;exitDx=0;exitDy=0;entryX=0;entryY=0.5;entryDx=0;entryDy=0;" edge="1" parent="1" source="5kNmyZpak8MlDcXLCmuv-4" target="5kNmyZpak8MlDcXLCmuv-6">
          <mxGeometry relative="1" as="geometry" />
        </mxCell>
        <mxCell id="5kNmyZpak8MlDcXLCmuv-11" style="edgeStyle=orthogonalEdgeStyle;rounded=0;orthogonalLoop=1;jettySize=auto;html=1;exitX=0.5;exitY=1;exitDx=0;exitDy=0;entryX=0;entryY=0.5;entryDx=0;entryDy=0;" edge="1" parent="1" source="5kNmyZpak8MlDcXLCmuv-4" target="5kNmyZpak8MlDcXLCmuv-10">
          <mxGeometry relative="1" as="geometry" />
        </mxCell>
        <mxCell id="5kNmyZpak8MlDcXLCmuv-4" value="data&#xa;Structured&#xa;Representation" style="rectangle;fillColor=#fff2cc;strokeColor=#d6b656;" name="data" vertex="1" parent="1" tooltip="⚠️ Node not part of any valid pattern.">
          <mxGeometry x="650" y="330" width="100" height="50" as="geometry" />
        </mxCell>
        <mxCell id="5kNmyZpak8MlDcXLCmuv-9" style="edgeStyle=orthogonalEdgeStyle;rounded=0;orthogonalLoop=1;jettySize=auto;html=1;exitX=1;exitY=0.5;exitDx=0;exitDy=0;entryX=0;entryY=0.5;entryDx=0;entryDy=0;" edge="1" parent="1" source="5kNmyZpak8MlDcXLCmuv-6" target="5kNmyZpak8MlDcXLCmuv-8">
          <mxGeometry relative="1" as="geometry" />
        </mxCell>
        <mxCell id="5kNmyZpak8MlDcXLCmuv-6" value="infer:deduce" style="rounded=1;whiteSpace=wrap;html=1;arcSize=50;fillColor=#bac8d3;strokeColor=#23445d;" name="infer:deduce" vertex="1" parent="1" tooltip="⚠️ Node not part of any valid pattern.">
          <mxGeometry x="830" y="330" width="100" height="50" as="geometry" />
        </mxCell>
        <mxCell id="5kNmyZpak8MlDcXLCmuv-12" style="edgeStyle=orthogonalEdgeStyle;rounded=0;orthogonalLoop=1;jettySize=auto;html=1;exitX=0.5;exitY=1;exitDx=0;exitDy=0;entryX=1;entryY=0.5;entryDx=0;entryDy=0;" edge="1" parent="1" source="5kNmyZpak8MlDcXLCmuv-8" target="5kNmyZpak8MlDcXLCmuv-10">
          <mxGeometry relative="1" as="geometry" />
        </mxCell>
        <mxCell id="5kNmyZpak8MlDcXLCmuv-8" value="symbol&#xa;Inferred&#xa;Knowledge" style="rectangle;fillColor=#dae8fc;strokeColor=#6c8ebf;" name="symbol" vertex="1" parent="1" tooltip="⚠️ Node not part of any valid pattern.">
          <mxGeometry x="1010" y="330" width="100" height="50" as="geometry" />
        </mxCell>
        <mxCell id="5kNmyZpak8MlDcXLCmuv-14" style="edgeStyle=orthogonalEdgeStyle;rounded=0;orthogonalLoop=1;jettySize=auto;html=1;exitX=0.5;exitY=1;exitDx=0;exitDy=0;entryX=0.5;entryY=0;entryDx=0;entryDy=0;" edge="1" parent="1" source="5kNmyZpak8MlDcXLCmuv-10" target="5kNmyZpak8MlDcXLCmuv-13">
          <mxGeometry relative="1" as="geometry" />
        </mxCell>
        <mxCell id="5kNmyZpak8MlDcXLCmuv-10" value="generate:train" style="rounded=1;whiteSpace=wrap;html=1;arcSize=50;fillColor=#e1d5e7;strokeColor=#9673a6;" name="generate:train" vertex="1" parent="1">
          <mxGeometry x="830" y="460" width="100" height="50" as="geometry" />
        </mxCell>
        <mxCell id="5kNmyZpak8MlDcXLCmuv-16" style="edgeStyle=orthogonalEdgeStyle;rounded=0;orthogonalLoop=1;jettySize=auto;html=1;exitX=0.5;exitY=1;exitDx=0;exitDy=0;entryX=0.5;entryY=0;entryDx=0;entryDy=0;" edge="1" parent="1" source="5kNmyZpak8MlDcXLCmuv-13" target="5kNmyZpak8MlDcXLCmuv-15">
          <mxGeometry relative="1" as="geometry" />
        </mxCell>
        <mxCell id="5kNmyZpak8MlDcXLCmuv-13" value="model:hybrid&#xa;LCS" style="shape=hexagon;perimeter=hexagonPerimeter2;fillColor=#b0e3e6;strokeColor=#0e8088;" name="model" vertex="1" parent="1">
          <mxGeometry x="820" y="590" width="120" height="50" as="geometry" />
        </mxCell>
        <mxCell id="5kNmyZpak8MlDcXLCmuv-20" style="edgeStyle=orthogonalEdgeStyle;rounded=0;orthogonalLoop=1;jettySize=auto;html=1;exitX=0.5;exitY=1;exitDx=0;exitDy=0;entryX=0.5;entryY=0;entryDx=0;entryDy=0;" edge="1" parent="1" source="5kNmyZpak8MlDcXLCmuv-15" target="5kNmyZpak8MlDcXLCmuv-19">
          <mxGeometry relative="1" as="geometry" />
        </mxCell>
        <mxCell id="5kNmyZpak8MlDcXLCmuv-15" value="infer:deduce" style="rounded=1;whiteSpace=wrap;html=1;arcSize=50;fillColor=#bac8d3;strokeColor=#23445d;" name="infer:deduce" vertex="1" parent="1">
          <mxGeometry x="830" y="720" width="100" height="50" as="geometry" />
        </mxCell>
        <mxCell id="5kNmyZpak8MlDcXLCmuv-18" style="edgeStyle=orthogonalEdgeStyle;rounded=0;orthogonalLoop=1;jettySize=auto;html=1;entryX=1;entryY=0.5;entryDx=0;entryDy=0;" edge="1" parent="1" source="5kNmyZpak8MlDcXLCmuv-17" target="5kNmyZpak8MlDcXLCmuv-15">
          <mxGeometry relative="1" as="geometry" />
        </mxCell>
        <mxCell id="5kNmyZpak8MlDcXLCmuv-17" value="data&#xa;Patient ECG and&#xa;Medical Data" style="rectangle;fillColor=#fff2cc;strokeColor=#d6b656;" name="data" vertex="1" parent="1">
          <mxGeometry x="1010" y="720" width="100" height="50" as="geometry" />
        </mxCell>
        <mxCell id="5kNmyZpak8MlDcXLCmuv-22" style="edgeStyle=orthogonalEdgeStyle;rounded=0;orthogonalLoop=1;jettySize=auto;html=1;exitX=0.5;exitY=1;exitDx=0;exitDy=0;entryX=0.5;entryY=0;entryDx=0;entryDy=0;" edge="1" parent="1" source="5kNmyZpak8MlDcXLCmuv-19" target="5kNmyZpak8MlDcXLCmuv-21">
          <mxGeometry relative="1" as="geometry" />
        </mxCell>
        <mxCell id="5kNmyZpak8MlDcXLCmuv-19" value="symbol&#xa;Decision Support&#xa;Recommendation" style="rectangle;fillColor=#dae8fc;strokeColor=#6c8ebf;" name="symbol" vertex="1" parent="1">
          <mxGeometry x="830" y="850" width="100" height="50" as="geometry" />
        </mxCell>
        <mxCell id="5kNmyZpak8MlDcXLCmuv-27" style="edgeStyle=orthogonalEdgeStyle;rounded=0;orthogonalLoop=1;jettySize=auto;html=1;exitX=0.5;exitY=1;exitDx=0;exitDy=0;entryX=0.5;entryY=0;entryDx=0;entryDy=0;" edge="1" parent="1" source="5kNmyZpak8MlDcXLCmuv-21" target="5kNmyZpak8MlDcXLCmuv-26">
          <mxGeometry relative="1" as="geometry" />
        </mxCell>
        <mxCell id="5kNmyZpak8MlDcXLCmuv-21" value="transform" style="rounded=1;whiteSpace=wrap;html=1;arcSize=50;fillColor=#f8cecc;strokeColor=#b85450;" name="transform" vertex="1" parent="1">
          <mxGeometry x="830" y="980" width="100" height="50" as="geometry" />
        </mxCell>
        <mxCell id="5kNmyZpak8MlDcXLCmuv-23" value="actor" style="triangle;fillColor=#ffe6cc;strokeColor=#d79b00;" name="actor" vertex="1" parent="1">
          <mxGeometry x="1010" y="980" width="100" height="50" as="geometry" />
        </mxCell>
        <mxCell id="5kNmyZpak8MlDcXLCmuv-25" value="&lt;div&gt;error&lt;/div&gt;&lt;div&gt;&amp;lt;--&lt;/div&gt;" style="text;html=1;align=center;verticalAlign=middle;whiteSpace=wrap;rounded=0;dashed=1;fillColor=#f5f5f5;fontColor=#333333;strokeColor=#666666;strokeWidth=2;" name="text" vertex="1" parent="1">
          <mxGeometry x="930" y="990" width="80" height="30" as="geometry" />
        </mxCell>
        <mxCell id="5kNmyZpak8MlDcXLCmuv-28" style="edgeStyle=orthogonalEdgeStyle;rounded=0;orthogonalLoop=1;jettySize=auto;html=1;exitX=0;exitY=0.5;exitDx=0;exitDy=0;entryX=0;entryY=0.5;entryDx=0;entryDy=0;" edge="1" parent="1" source="5kNmyZpak8MlDcXLCmuv-26" target="5kNmyZpak8MlDcXLCmuv-15">
          <mxGeometry relative="1" as="geometry">
            <Array as="points">
              <mxPoint x="750" y="1135" />
              <mxPoint x="750" y="745" />
            </Array>
          </mxGeometry>
        </mxCell>
        <mxCell id="5kNmyZpak8MlDcXLCmuv-26" value="symbol&#xa;Expert Adjusted&#xa;Advice" style="rectangle;fillColor=#dae8fc;strokeColor=#6c8ebf;" name="symbol" vertex="1" parent="1">
          <mxGeometry x="830" y="1110" width="100" height="50" as="geometry" />
        </mxCell>
        <mxCell id="5kNmyZpak8MlDcXLCmuv-29" value="error" style="text;html=1;align=center;verticalAlign=middle;whiteSpace=wrap;rounded=0;dashed=1;fillColor=#f5f5f5;fontColor=#333333;strokeColor=#666666;strokeWidth=2;" name="text" vertex="1" parent="1">
          <mxGeometry x="860" y="290" width="40" height="30" as="geometry" />
        </mxCell>
        <mxCell id="5kNmyZpak8MlDcXLCmuv-30" value="error" style="text;html=1;align=center;verticalAlign=middle;whiteSpace=wrap;rounded=0;dashed=1;fillColor=#f5f5f5;fontColor=#333333;strokeColor=#666666;strokeWidth=2;" name="text" vertex="1" parent="1">
          <mxGeometry x="860" y="420" width="40" height="30" as="geometry" />
        </mxCell>
        <mxCell id="5kNmyZpak8MlDcXLCmuv-31" value="error" style="text;html=1;align=center;verticalAlign=middle;whiteSpace=wrap;rounded=0;dashed=1;fillColor=#f5f5f5;fontColor=#333333;strokeColor=#666666;strokeWidth=2;" name="text" vertex="1" parent="1">
          <mxGeometry x="780" y="990" width="40" height="30" as="geometry" />
        </mxCell>
        <mxCell id="5kNmyZpak8MlDcXLCmuv-41" value="error" style="text;html=1;align=center;verticalAlign=middle;whiteSpace=wrap;rounded=0;dashed=1;fillColor=#f5f5f5;fontColor=#333333;strokeColor=#666666;strokeWidth=2;" name="text" vertex="1" parent="1">
          <mxGeometry x="700" y="930" width="40" height="30" as="geometry" />
        </mxCell>
      </root>
    </mxGraphModel>
  </diagram>
  <diagram name="Copy of Page-1" id="gkSslO3Qh_21Y1XYgxi-">
    <mxGraphModel dx="1310" dy="785" grid="1" gridSize="10" guides="1" tooltips="1" connect="1" arrows="1" fold="1" page="1" pageScale="1" pageWidth="3300" pageHeight="4681" math="0" shadow="0">
      <root>
        <mxCell id="U61LaIEd7tEGn8UGNz6U-0" />
        <mxCell id="U61LaIEd7tEGn8UGNz6U-1" parent="U61LaIEd7tEGn8UGNz6U-0" />
        <mxCell id="U61LaIEd7tEGn8UGNz6U-2" style="edgeStyle=orthogonalEdgeStyle;rounded=0;orthogonalLoop=1;jettySize=auto;html=1;exitX=1;exitY=0.5;exitDx=0;exitDy=0;entryX=0;entryY=0.5;entryDx=0;entryDy=0;" edge="1" parent="U61LaIEd7tEGn8UGNz6U-1" source="U61LaIEd7tEGn8UGNz6U-3" target="U61LaIEd7tEGn8UGNz6U-5">
          <mxGeometry relative="1" as="geometry" />
        </mxCell>
        <mxCell id="U61LaIEd7tEGn8UGNz6U-3" value="data&#xa;ECG Data and&#xa;Medical Records" style="rectangle;fillColor=#fff2cc;strokeColor=#d6b656;" name="data" vertex="1" parent="U61LaIEd7tEGn8UGNz6U-1">
          <mxGeometry x="340" y="230" width="100" height="50" as="geometry" />
        </mxCell>
        <mxCell id="U61LaIEd7tEGn8UGNz6U-4" style="edgeStyle=orthogonalEdgeStyle;rounded=0;orthogonalLoop=1;jettySize=auto;html=1;exitX=1;exitY=0.5;exitDx=0;exitDy=0;entryX=0.5;entryY=0;entryDx=0;entryDy=0;" edge="1" parent="U61LaIEd7tEGn8UGNz6U-1" source="U61LaIEd7tEGn8UGNz6U-5" target="U61LaIEd7tEGn8UGNz6U-8">
          <mxGeometry relative="1" as="geometry" />
        </mxCell>
        <mxCell id="U61LaIEd7tEGn8UGNz6U-5" value="transform" style="rounded=1;whiteSpace=wrap;html=1;arcSize=50;fillColor=#f8cecc;strokeColor=#b85450;" name="transform" vertex="1" parent="U61LaIEd7tEGn8UGNz6U-1">
          <mxGeometry x="520" y="230" width="100" height="50" as="geometry" />
        </mxCell>
        <mxCell id="U61LaIEd7tEGn8UGNz6U-6" style="edgeStyle=orthogonalEdgeStyle;rounded=0;orthogonalLoop=1;jettySize=auto;html=1;exitX=1;exitY=0.5;exitDx=0;exitDy=0;entryX=0;entryY=0.5;entryDx=0;entryDy=0;" edge="1" parent="U61LaIEd7tEGn8UGNz6U-1" source="U61LaIEd7tEGn8UGNz6U-8" target="U61LaIEd7tEGn8UGNz6U-10">
          <mxGeometry relative="1" as="geometry" />
        </mxCell>
        <mxCell id="U61LaIEd7tEGn8UGNz6U-7" style="edgeStyle=orthogonalEdgeStyle;rounded=0;orthogonalLoop=1;jettySize=auto;html=1;exitX=0.5;exitY=1;exitDx=0;exitDy=0;entryX=0;entryY=0.5;entryDx=0;entryDy=0;" edge="1" parent="U61LaIEd7tEGn8UGNz6U-1" source="U61LaIEd7tEGn8UGNz6U-8" target="U61LaIEd7tEGn8UGNz6U-14">
          <mxGeometry relative="1" as="geometry" />
        </mxCell>
        <mxCell id="U61LaIEd7tEGn8UGNz6U-8" value="data&#xa;Structured&#xa;Representation" style="rectangle;fillColor=#fff2cc;strokeColor=#d6b656;" name="data" vertex="1" parent="U61LaIEd7tEGn8UGNz6U-1" tooltip="⚠️ Node not part of any valid pattern.">
          <mxGeometry x="650" y="330" width="100" height="50" as="geometry" />
        </mxCell>
        <mxCell id="U61LaIEd7tEGn8UGNz6U-9" style="edgeStyle=orthogonalEdgeStyle;rounded=0;orthogonalLoop=1;jettySize=auto;html=1;exitX=1;exitY=0.5;exitDx=0;exitDy=0;entryX=0;entryY=0.5;entryDx=0;entryDy=0;" edge="1" parent="U61LaIEd7tEGn8UGNz6U-1" source="U61LaIEd7tEGn8UGNz6U-10" target="U61LaIEd7tEGn8UGNz6U-12">
          <mxGeometry relative="1" as="geometry" />
        </mxCell>
        <mxCell id="U61LaIEd7tEGn8UGNz6U-10" value="infer:deduce" style="rounded=1;whiteSpace=wrap;html=1;arcSize=50;fillColor=#bac8d3;strokeColor=#23445d;" name="infer:deduce" vertex="1" parent="U61LaIEd7tEGn8UGNz6U-1" tooltip="⚠️ Node not part of any valid pattern.">
          <mxGeometry x="830" y="330" width="100" height="50" as="geometry" />
        </mxCell>
        <mxCell id="U61LaIEd7tEGn8UGNz6U-11" style="edgeStyle=orthogonalEdgeStyle;rounded=0;orthogonalLoop=1;jettySize=auto;html=1;exitX=0.5;exitY=1;exitDx=0;exitDy=0;entryX=1;entryY=0.5;entryDx=0;entryDy=0;" edge="1" parent="U61LaIEd7tEGn8UGNz6U-1" source="U61LaIEd7tEGn8UGNz6U-12" target="U61LaIEd7tEGn8UGNz6U-14">
          <mxGeometry relative="1" as="geometry" />
        </mxCell>
        <mxCell id="U61LaIEd7tEGn8UGNz6U-12" value="symbol&#xa;Inferred&#xa;Knowledge" style="rectangle;fillColor=#dae8fc;strokeColor=#6c8ebf;" name="symbol" vertex="1" parent="U61LaIEd7tEGn8UGNz6U-1" tooltip="⚠️ Node not part of any valid pattern.">
          <mxGeometry x="1010" y="330" width="100" height="50" as="geometry" />
        </mxCell>
        <mxCell id="U61LaIEd7tEGn8UGNz6U-13" style="edgeStyle=orthogonalEdgeStyle;rounded=0;orthogonalLoop=1;jettySize=auto;html=1;exitX=0.5;exitY=1;exitDx=0;exitDy=0;entryX=0.5;entryY=0;entryDx=0;entryDy=0;" edge="1" parent="U61LaIEd7tEGn8UGNz6U-1" source="U61LaIEd7tEGn8UGNz6U-14" target="U61LaIEd7tEGn8UGNz6U-16">
          <mxGeometry relative="1" as="geometry" />
        </mxCell>
        <mxCell id="U61LaIEd7tEGn8UGNz6U-14" value="generate:train" style="rounded=1;whiteSpace=wrap;html=1;arcSize=50;fillColor=#e1d5e7;strokeColor=#9673a6;" name="generate:train" vertex="1" parent="U61LaIEd7tEGn8UGNz6U-1">
          <mxGeometry x="830" y="460" width="100" height="50" as="geometry" />
        </mxCell>
        <mxCell id="U61LaIEd7tEGn8UGNz6U-15" style="edgeStyle=orthogonalEdgeStyle;rounded=0;orthogonalLoop=1;jettySize=auto;html=1;exitX=0.5;exitY=1;exitDx=0;exitDy=0;entryX=0.5;entryY=0;entryDx=0;entryDy=0;" edge="1" parent="U61LaIEd7tEGn8UGNz6U-1" source="U61LaIEd7tEGn8UGNz6U-16" target="U61LaIEd7tEGn8UGNz6U-18">
          <mxGeometry relative="1" as="geometry" />
        </mxCell>
        <mxCell id="U61LaIEd7tEGn8UGNz6U-16" value="model:hybrid&#xa;LCS" style="shape=hexagon;perimeter=hexagonPerimeter2;fillColor=#b0e3e6;strokeColor=#0e8088;" name="model" vertex="1" parent="U61LaIEd7tEGn8UGNz6U-1">
          <mxGeometry x="820" y="590" width="120" height="50" as="geometry" />
        </mxCell>
        <mxCell id="U61LaIEd7tEGn8UGNz6U-17" style="edgeStyle=orthogonalEdgeStyle;rounded=0;orthogonalLoop=1;jettySize=auto;html=1;exitX=0.5;exitY=1;exitDx=0;exitDy=0;entryX=0.5;entryY=0;entryDx=0;entryDy=0;" edge="1" parent="U61LaIEd7tEGn8UGNz6U-1" source="U61LaIEd7tEGn8UGNz6U-18" target="U61LaIEd7tEGn8UGNz6U-22">
          <mxGeometry relative="1" as="geometry" />
        </mxCell>
        <mxCell id="U61LaIEd7tEGn8UGNz6U-18" value="infer:deduce" style="rounded=1;whiteSpace=wrap;html=1;arcSize=50;fillColor=#bac8d3;strokeColor=#23445d;" name="infer:deduce" vertex="1" parent="U61LaIEd7tEGn8UGNz6U-1">
          <mxGeometry x="830" y="720" width="100" height="50" as="geometry" />
        </mxCell>
        <mxCell id="U61LaIEd7tEGn8UGNz6U-19" style="edgeStyle=orthogonalEdgeStyle;rounded=0;orthogonalLoop=1;jettySize=auto;html=1;entryX=1;entryY=0.5;entryDx=0;entryDy=0;" edge="1" parent="U61LaIEd7tEGn8UGNz6U-1" source="U61LaIEd7tEGn8UGNz6U-20" target="U61LaIEd7tEGn8UGNz6U-18">
          <mxGeometry relative="1" as="geometry" />
        </mxCell>
        <mxCell id="U61LaIEd7tEGn8UGNz6U-20" value="data&#xa;Patient ECG and&#xa;Medical Data" style="rectangle;fillColor=#fff2cc;strokeColor=#d6b656;" name="data" vertex="1" parent="U61LaIEd7tEGn8UGNz6U-1">
          <mxGeometry x="1010" y="720" width="100" height="50" as="geometry" />
        </mxCell>
        <mxCell id="U61LaIEd7tEGn8UGNz6U-21" style="edgeStyle=orthogonalEdgeStyle;rounded=0;orthogonalLoop=1;jettySize=auto;html=1;exitX=0.5;exitY=1;exitDx=0;exitDy=0;entryX=0.5;entryY=0;entryDx=0;entryDy=0;" edge="1" parent="U61LaIEd7tEGn8UGNz6U-1" source="U61LaIEd7tEGn8UGNz6U-22" target="U61LaIEd7tEGn8UGNz6U-24">
          <mxGeometry relative="1" as="geometry" />
        </mxCell>
        <mxCell id="U61LaIEd7tEGn8UGNz6U-22" value="symbol&#xa;Decision Support&#xa;Recommendation" style="rectangle;fillColor=#dae8fc;strokeColor=#6c8ebf;" name="symbol" vertex="1" parent="U61LaIEd7tEGn8UGNz6U-1">
          <mxGeometry x="830" y="850" width="100" height="50" as="geometry" />
        </mxCell>
        <mxCell id="U61LaIEd7tEGn8UGNz6U-23" style="edgeStyle=orthogonalEdgeStyle;rounded=0;orthogonalLoop=1;jettySize=auto;html=1;exitX=0.5;exitY=1;exitDx=0;exitDy=0;entryX=0.5;entryY=0;entryDx=0;entryDy=0;" edge="1" parent="U61LaIEd7tEGn8UGNz6U-1" source="U61LaIEd7tEGn8UGNz6U-24" target="U61LaIEd7tEGn8UGNz6U-28">
          <mxGeometry relative="1" as="geometry" />
        </mxCell>
        <mxCell id="U61LaIEd7tEGn8UGNz6U-24" value="transform" style="rounded=1;whiteSpace=wrap;html=1;arcSize=50;fillColor=#f8cecc;strokeColor=#b85450;" name="transform" vertex="1" parent="U61LaIEd7tEGn8UGNz6U-1">
          <mxGeometry x="830" y="980" width="100" height="50" as="geometry" />
        </mxCell>
        <mxCell id="_nULhzojrxl96h0sEVFB-0" style="edgeStyle=orthogonalEdgeStyle;rounded=0;orthogonalLoop=1;jettySize=auto;html=1;exitX=0;exitY=0.5;exitDx=0;exitDy=0;entryX=1;entryY=0.5;entryDx=0;entryDy=0;" edge="1" parent="U61LaIEd7tEGn8UGNz6U-1" source="U61LaIEd7tEGn8UGNz6U-25" target="U61LaIEd7tEGn8UGNz6U-24">
          <mxGeometry relative="1" as="geometry" />
        </mxCell>
        <mxCell id="U61LaIEd7tEGn8UGNz6U-25" value="actor" style="triangle;fillColor=#ffe6cc;strokeColor=#d79b00;" name="actor" vertex="1" parent="U61LaIEd7tEGn8UGNz6U-1">
          <mxGeometry x="1010" y="980" width="100" height="50" as="geometry" />
        </mxCell>
        <mxCell id="U61LaIEd7tEGn8UGNz6U-27" style="edgeStyle=orthogonalEdgeStyle;rounded=0;orthogonalLoop=1;jettySize=auto;html=1;exitX=0;exitY=0.5;exitDx=0;exitDy=0;entryX=0;entryY=0.5;entryDx=0;entryDy=0;" edge="1" parent="U61LaIEd7tEGn8UGNz6U-1" source="U61LaIEd7tEGn8UGNz6U-28" target="U61LaIEd7tEGn8UGNz6U-18">
          <mxGeometry relative="1" as="geometry">
            <Array as="points">
              <mxPoint x="750" y="1135" />
              <mxPoint x="750" y="745" />
            </Array>
          </mxGeometry>
        </mxCell>
        <mxCell id="U61LaIEd7tEGn8UGNz6U-28" value="symbol&#xa;Expert Adjusted&#xa;Advice" style="rectangle;fillColor=#dae8fc;strokeColor=#6c8ebf;" name="symbol" vertex="1" parent="U61LaIEd7tEGn8UGNz6U-1">
          <mxGeometry x="830" y="1110" width="100" height="50" as="geometry" />
        </mxCell>
        <mxCell id="U61LaIEd7tEGn8UGNz6U-29" value="error" style="text;html=1;align=center;verticalAlign=middle;whiteSpace=wrap;rounded=0;dashed=1;fillColor=#f5f5f5;fontColor=#333333;strokeColor=#666666;strokeWidth=2;" name="text" vertex="1" parent="U61LaIEd7tEGn8UGNz6U-1">
          <mxGeometry x="860" y="290" width="40" height="30" as="geometry" />
        </mxCell>
      </root>
    </mxGraphModel>
  </diagram>
</mxfile>
